<svg width="43" height="30" viewBox="0 0 43 30" fill="none" xmlns="http://www.w3.org/2000/svg">
<rect width="42.6146" height="29.5024" rx="14.7512" fill="#009387"/>
<path fill-rule="evenodd" clip-rule="evenodd" d="M15.8438 14.7514C15.8438 14.2761 16.218 13.8909 16.6797 13.8909H24.0779L21.673 11.6429C21.3402 11.3135 21.3298 10.7688 21.6498 10.4262C21.9698 10.0836 22.4989 10.0729 22.8317 10.4023L26.7326 14.1311C26.8965 14.2933 26.9891 14.5173 26.9891 14.7514C26.9891 14.9854 26.8965 15.2094 26.7326 15.3716L22.8317 19.1004C22.4989 19.4298 21.9698 19.4191 21.6498 19.0766C21.3298 18.734 21.3402 18.1893 21.673 17.8599L24.0779 15.6119H16.6797C16.218 15.6119 15.8437 15.2266 15.8438 14.7514Z" fill="white"/>
</svg>
