<svg width="33" height="34" viewBox="0 0 33 34" fill="none" xmlns="http://www.w3.org/2000/svg">
<g clip-path="url(#clip0_144_5556)">
<path fill-rule="evenodd" clip-rule="evenodd" d="M18.3701 1.04698L20.4321 2.64986C20.9961 3.08823 21.5897 3.31257 22.293 3.35324L24.8647 3.5018C26.4046 3.59072 27.6553 4.68049 28.0071 6.23996L28.5946 8.84424C28.7552 9.55647 29.0711 10.1246 29.5847 10.6252L31.4628 12.4557C32.5874 13.5517 32.8709 15.2214 32.1751 16.6508L31.0132 19.0379C30.6954 19.6908 30.5857 20.3368 30.6693 21.0631L30.975 23.719C31.1581 25.3093 30.3417 26.7775 28.924 27.4081L26.5563 28.4611C25.9087 28.7491 25.4248 29.1707 25.0393 29.783L23.6295 32.0215C22.7854 33.3619 21.2512 33.9417 19.7749 33.4784L17.3094 32.7047C16.6351 32.493 16.0034 32.493 15.3291 32.7047L12.8635 33.4784C11.3872 33.9417 9.85301 33.3619 9.00889 32.0215L7.5991 29.783C7.21349 29.1707 6.72961 28.7491 6.0821 28.4611L3.71422 27.4079C2.29652 26.7774 1.48019 25.3092 1.66322 23.7189L1.96895 21.063C2.05255 20.3366 1.94284 19.6906 1.62507 19.0377L0.463115 16.6506C-0.232614 15.2213 0.0508587 13.5516 1.17541 12.4556L3.05353 10.625C3.56717 10.1244 3.88298 9.55633 4.04362 8.8441L4.63113 6.23982C4.98285 4.68042 6.23355 3.59065 7.77347 3.50166L10.3452 3.3531C11.0486 3.3125 11.6422 3.08808 12.2061 2.64972L14.2681 1.04684C15.5028 0.0872275 17.1354 0.0872276 18.3701 1.04698ZM15.0037 17.8989L12.766 15.575C12.186 14.9727 11.2452 14.9727 10.6653 15.575C10.0853 16.1774 10.0853 17.1543 10.6653 17.7566L13.9566 21.1744C14.5366 21.7767 15.4774 21.7767 16.0573 21.1744C18.0412 19.1142 20.0025 17.0309 21.9772 14.9613C22.553 14.3578 22.5512 13.384 21.9708 12.7846C21.3903 12.1851 20.4499 12.1868 19.8735 12.7914L15.0037 17.8989ZM16.3191 5.49408C13.2645 5.49408 10.4989 6.77989 8.49707 8.85871C6.49524 10.9376 5.25705 13.8094 5.25705 16.9815C5.25705 20.1536 6.49524 23.0255 8.49707 25.1044C10.4989 27.1832 13.2645 28.469 16.3191 28.469C19.3737 28.469 22.1392 27.1832 24.1411 25.1044C26.1429 23.0255 27.3811 20.1536 27.3811 16.9815C27.3811 13.8094 26.1429 10.9375 24.1411 8.85871C22.1392 6.77989 19.3737 5.49408 16.3191 5.49408ZM23.3759 9.65334C21.5699 7.77793 19.0749 6.61792 16.3191 6.61792C13.5632 6.61792 11.0682 7.77793 9.26226 9.65334C7.45631 11.5287 6.33927 14.1197 6.33927 16.9815C6.33927 19.8434 7.45631 22.4343 9.26226 24.3097C11.0682 26.1851 13.5632 27.3451 16.3191 27.3451C19.0749 27.3451 21.5699 26.1851 23.3759 24.3098C25.1818 22.4344 26.2988 19.8435 26.2988 16.9816C26.2989 14.1197 25.1818 11.5287 23.3759 9.65334Z" fill="#009387"/>
</g>
<defs>
<clipPath id="clip0_144_5556">
<rect width="33" height="34" fill="white"/>
</clipPath>
</defs>
</svg>
