<svg width="76" height="72" viewBox="0 0 76 72" fill="none" xmlns="http://www.w3.org/2000/svg">
<path opacity="0.1" d="M37.4937 16.3754L18.3125 35.5566L27.8961 45.1402L47.0773 25.959L37.4937 16.3754Z" fill="#69FFA5"/>
<path fill-rule="evenodd" clip-rule="evenodd" d="M18.1252 35.7668C18.0151 35.6567 18.0151 35.4781 18.1252 35.3679L37.3065 16.1867C37.4166 16.0766 37.5952 16.0766 37.7054 16.1867L56.8866 35.3679C56.9968 35.4781 56.9968 35.6567 56.8866 35.7668L37.7054 54.9481C37.5952 55.0582 37.4166 55.0582 37.3065 54.9481L18.1252 35.7668ZM18.7236 35.5674L37.5059 54.3497L56.2882 35.5674L37.5059 16.7851L18.7236 35.5674Z" fill="#69FFA5"/>
<path fill-rule="evenodd" clip-rule="evenodd" d="M14.7268 35.7532C14.6166 35.643 14.6166 35.4644 14.7268 35.3543L37.2996 12.7815C37.4097 12.6713 37.5883 12.6713 37.6985 12.7815L60.2713 35.3543C60.3814 35.4644 60.3814 35.643 60.2713 35.7532L37.6985 58.3259C37.5883 58.4361 37.4097 58.4361 37.2996 58.3259L14.7268 35.7532ZM15.3252 35.5537L37.499 57.7276L59.6729 35.5537L37.499 13.3798L15.3252 35.5537Z" fill="#69FFA5"/>
<path fill-rule="evenodd" clip-rule="evenodd" d="M32.1018 39.7546C31.9916 39.8648 31.813 39.8648 31.7029 39.7546L27.7203 35.772C27.6101 35.6619 27.6101 35.4833 27.7203 35.3731L31.7029 31.3905C31.813 31.2804 31.9916 31.2804 32.1018 31.3905L36.0844 35.3731C36.1946 35.4833 36.1946 35.6619 36.0844 35.772L32.1018 39.7546ZM31.9023 39.1563L35.486 35.5726L31.9023 31.9889L28.3186 35.5726L31.9023 39.1563Z" fill="#69FFA5"/>
<path fill-rule="evenodd" clip-rule="evenodd" d="M37.6877 34.157C37.5776 34.2671 37.399 34.2671 37.2888 34.157L33.3062 30.1744C33.1961 30.0642 33.1961 29.8856 33.3062 29.7755L37.2888 25.7929C37.399 25.6827 37.5776 25.6827 37.6877 25.7929L41.6703 29.7755C41.7805 29.8856 41.7805 30.0642 41.6703 30.1744L37.6877 34.157ZM37.4883 33.5586L41.072 29.9749L37.4883 26.3912L33.9046 29.9749L37.4883 33.5586Z" fill="#69FFA5"/>
<path fill-rule="evenodd" clip-rule="evenodd" d="M43.2698 39.7556C43.1596 39.8658 42.981 39.8658 42.8709 39.7556L38.8883 35.773C38.7781 35.6629 38.7781 35.4843 38.8883 35.3741L42.8709 31.3915C42.981 31.2814 43.1596 31.2814 43.2698 31.3915L47.2524 35.3741C47.3625 35.4843 47.3625 35.6629 47.2524 35.773L43.2698 39.7556ZM43.0703 39.1573L46.654 35.5736L43.0703 31.9899L39.4866 35.5736L43.0703 39.1573Z" fill="#69FFA5"/>
<path fill-rule="evenodd" clip-rule="evenodd" d="M37.6799 45.3289C37.5698 45.439 37.3912 45.439 37.281 45.3289L33.2984 41.3463C33.1883 41.2361 33.1883 41.0575 33.2984 40.9474L37.281 36.9648C37.3912 36.8546 37.5698 36.8546 37.6799 36.9648L41.6625 40.9474C41.7727 41.0575 41.7727 41.2361 41.6625 41.3463L37.6799 45.3289ZM37.4805 44.7305L41.0642 41.1468L37.4805 37.5631L33.8968 41.1468L37.4805 44.7305Z" fill="#69FFA5"/>
<path d="M65.9969 58.8754C61.0167 64.3689 54.3901 68.2904 47.0011 70.1167C39.6122 71.943 31.8122 71.5874 24.6417 69.0971C17.4713 66.6069 11.2712 62.1006 6.86877 56.1792C2.46629 50.2579 0.0706858 43.2031 0.00153945 35.956C-0.0676069 28.709 2.19299 21.6142 6.48176 15.6181C10.7705 9.62206 16.8836 5.00985 24.0053 2.39677C31.1271 -0.216306 38.919 -0.706008 46.3416 0.992993C53.7642 2.69199 60.4645 6.49891 65.5487 11.9059L59.8535 16.7307C55.8032 12.4232 50.4653 9.39035 44.5521 8.03682C38.6388 6.6833 32.4313 7.07343 26.7577 9.15516C21.0841 11.2369 16.2141 14.9112 12.7974 19.688C9.3807 24.4648 7.57978 30.117 7.63486 35.8904C7.68995 41.6639 9.59843 47.2841 13.1057 52.0014C16.613 56.7187 21.5523 60.3087 27.2647 62.2926C32.9771 64.2764 39.191 64.5598 45.0775 63.1048C50.9639 61.6498 56.243 58.5258 60.2106 54.1493L65.9969 58.8754Z" fill="url(#paint0_linear_172_284)"/>
<defs>
<linearGradient id="paint0_linear_172_284" x1="37.5409" y1="0" x2="37.5409" y2="71.2667" gradientUnits="userSpaceOnUse">
<stop stop-color="#00FDBB"/>
<stop offset="1" stop-color="#008BD1"/>
</linearGradient>
</defs>
</svg>
