<svg width="358" height="68" viewBox="0 0 358 68" fill="none" xmlns="http://www.w3.org/2000/svg">
<rect width="358" height="68" rx="34" fill="#1F1F1F"/>
<path d="M49.59 44.6C46.99 44.6 44.6 44.44 42.42 44.12C40.26 43.82 38.38 43.3 36.78 42.56C35.2 41.8 33.97 40.77 33.09 39.47C32.23 38.17 31.8 36.53 31.8 34.55C31.8 32.57 32.24 30.92 33.12 29.6C34 28.26 35.26 27.2 36.9 26.42C38.56 25.62 40.53 25.05 42.81 24.71C45.11 24.37 47.67 24.2 50.49 24.2C54.19 24.2 57.29 24.54 59.79 25.22C62.31 25.9 64.23 26.87 65.55 28.13C66.87 29.37 67.58 30.85 67.68 32.57H59.88C59.64 32.13 59.2 31.71 58.56 31.31C57.92 30.89 56.96 30.55 55.68 30.29C54.4 30.03 52.67 29.9 50.49 29.9C47.93 29.9 45.85 30.06 44.25 30.38C42.65 30.68 41.48 31.17 40.74 31.85C40 32.53 39.63 33.43 39.63 34.55C39.63 35.53 40.01 36.34 40.77 36.98C41.53 37.62 42.75 38.1 44.43 38.42C46.11 38.74 48.33 38.9 51.09 38.9C53.03 38.9 54.71 38.82 56.13 38.66C57.57 38.48 58.87 38.21 60.03 37.85C61.21 37.49 62.38 37.04 63.54 36.5L64.26 37.37C63.02 39.71 61.18 41.5 58.74 42.74C56.3 43.98 53.25 44.6 49.59 44.6ZM62.22 44C62.22 43.4 62.3 42.72 62.46 41.96C62.62 41.2 62.82 40.41 63.06 39.59C63.32 38.75 63.57 37.96 63.81 37.22H52.11V34.07H68.1V44H62.22ZM98.7853 44H91.5853V29.3H98.7853V44ZM91.8853 36.41L91.9453 37.85C91.8853 38.27 91.6853 38.76 91.3453 39.32C91.0253 39.88 90.5753 40.46 89.9953 41.06C89.4153 41.66 88.7053 42.22 87.8653 42.74C87.0253 43.24 86.0653 43.65 84.9853 43.97C83.9053 44.29 82.7053 44.45 81.3853 44.45C80.0653 44.45 78.8153 44.31 77.6353 44.03C76.4553 43.77 75.4053 43.33 74.4853 42.71C73.5653 42.09 72.8453 41.26 72.3253 40.22C71.8053 39.16 71.5453 37.84 71.5453 36.26V29.3H78.7453V35.51C78.7453 36.61 78.9253 37.46 79.2853 38.06C79.6653 38.66 80.2553 39.08 81.0553 39.32C81.8553 39.54 82.8853 39.65 84.1453 39.65C85.3253 39.65 86.4153 39.48 87.4153 39.14C88.4353 38.78 89.3253 38.35 90.0853 37.85C90.8653 37.35 91.4653 36.87 91.8853 36.41ZM113.607 41.93C110.767 41.93 108.427 41.7 106.587 41.24C104.747 40.76 103.387 40.05 102.507 39.11C101.627 38.15 101.187 36.95 101.187 35.51C101.187 34.17 101.617 33.01 102.477 32.03C103.337 31.03 104.677 30.25 106.497 29.69C108.337 29.13 110.707 28.85 113.607 28.85C114.187 28.85 114.777 28.85 115.377 28.85C115.977 28.85 116.567 28.85 117.147 28.85H128.607V32.63C127.307 32.69 125.987 32.63 124.647 32.45C123.327 32.25 122.107 31.99 120.987 31.67L120.657 31.22C121.557 31.5 122.407 31.86 123.207 32.3C124.027 32.74 124.687 33.27 125.187 33.89C125.687 34.51 125.937 35.25 125.937 36.11C125.937 37.35 125.507 38.41 124.647 39.29C123.807 40.15 122.477 40.81 120.657 41.27C118.857 41.71 116.507 41.93 113.607 41.93ZM119.997 50.45V49.64C119.997 49.04 119.727 48.68 119.187 48.56C118.667 48.46 117.837 48.41 116.697 48.41H108.327C106.907 48.41 105.757 48.31 104.877 48.11C104.017 47.91 103.357 47.64 102.897 47.3C102.457 46.96 102.157 46.58 101.997 46.16C101.857 45.76 101.787 45.36 101.787 44.96C101.787 44.1 102.107 43.43 102.747 42.95C103.387 42.45 104.367 42.1 105.687 41.9C107.007 41.7 108.687 41.6 110.727 41.6L113.607 41.93C111.927 41.93 110.757 42.02 110.097 42.2C109.437 42.36 109.107 42.69 109.107 43.19C109.107 43.47 109.237 43.68 109.497 43.82C109.757 43.94 110.107 44 110.547 44H119.397C121.377 44 122.937 44.14 124.077 44.42C125.217 44.72 126.017 45.21 126.477 45.89C126.957 46.59 127.197 47.54 127.197 48.74V50.45H119.997ZM113.607 38C114.927 38 115.987 37.9 116.787 37.7C117.607 37.48 118.197 37.19 118.557 36.83C118.917 36.47 119.097 36.07 119.097 35.63C119.097 35.13 118.917 34.7 118.557 34.34C118.197 33.98 117.617 33.7 116.817 33.5C116.017 33.3 114.947 33.2 113.607 33.2C112.287 33.2 111.217 33.3 110.397 33.5C109.577 33.7 108.977 33.98 108.597 34.34C108.217 34.7 108.027 35.13 108.027 35.63C108.027 36.07 108.207 36.47 108.567 36.83C108.947 37.19 109.547 37.48 110.367 37.7C111.187 37.9 112.267 38 113.607 38ZM140.531 44.42C138.371 44.42 136.451 44.12 134.771 43.52C133.091 42.9 131.761 42.01 130.781 40.85C129.821 39.69 129.341 38.29 129.341 36.65C129.341 34.93 129.821 33.49 130.781 32.33C131.761 31.17 133.091 30.3 134.771 29.72C136.451 29.14 138.371 28.85 140.531 28.85C142.931 28.85 145.001 29.18 146.741 29.84C148.501 30.48 149.851 31.39 150.791 32.57C151.751 33.73 152.231 35.09 152.231 36.65C152.231 37.81 151.961 38.87 151.421 39.83C150.881 40.77 150.101 41.59 149.081 42.29C148.061 42.97 146.831 43.5 145.391 43.88C143.951 44.24 142.331 44.42 140.531 44.42ZM143.231 39.86C144.751 39.86 146.141 39.77 147.401 39.59C148.681 39.39 149.701 39.06 150.461 38.6C151.241 38.14 151.631 37.49 151.631 36.65C151.631 35.79 151.241 35.13 150.461 34.67C149.701 34.21 148.681 33.89 147.401 33.71C146.141 33.53 144.751 33.44 143.231 33.44C141.191 33.44 139.611 33.71 138.491 34.25C137.371 34.77 136.811 35.57 136.811 36.65C136.811 37.35 137.061 37.94 137.561 38.42C138.061 38.9 138.791 39.26 139.751 39.5C140.711 39.74 141.871 39.86 143.231 39.86ZM151.631 29.3H158.831V44H152.051C152.051 44 152.011 43.77 151.931 43.31C151.871 42.85 151.801 42.19 151.721 41.33C151.661 40.47 151.631 39.46 151.631 38.3V29.3ZM171.582 44V24.8H190.482C194.362 24.8 197.222 25.18 199.062 25.94C200.902 26.7 201.822 28.02 201.822 29.9C201.822 31.1 201.422 32.02 200.622 32.66C199.842 33.3 198.712 33.75 197.232 34.01C195.772 34.25 194.012 34.4 191.952 34.46L192.192 34.22C193.692 34.22 195.082 34.26 196.362 34.34C197.642 34.42 198.762 34.6 199.722 34.88C200.682 35.16 201.432 35.59 201.972 36.17C202.512 36.75 202.782 37.55 202.782 38.57C202.782 39.81 202.342 40.83 201.462 41.63C200.582 42.43 199.332 43.03 197.712 43.43C196.092 43.81 194.182 44 191.982 44H171.582ZM179.082 38.36H191.982C193.042 38.36 193.802 38.26 194.262 38.06C194.742 37.86 194.982 37.54 194.982 37.1C194.982 36.8 194.872 36.56 194.652 36.38C194.452 36.2 194.132 36.07 193.692 35.99C193.252 35.89 192.682 35.84 191.982 35.84H179.082V38.36ZM179.082 32.96H190.722C191.782 32.96 192.542 32.86 193.002 32.66C193.482 32.46 193.722 32.14 193.722 31.7C193.722 31.24 193.482 30.92 193.002 30.74C192.542 30.54 191.782 30.44 190.722 30.44H179.082V32.96ZM215.912 44.42C213.752 44.42 211.832 44.12 210.152 43.52C208.472 42.9 207.142 42.01 206.162 40.85C205.202 39.69 204.722 38.29 204.722 36.65C204.722 34.93 205.202 33.49 206.162 32.33C207.142 31.17 208.472 30.3 210.152 29.72C211.832 29.14 213.752 28.85 215.912 28.85C218.312 28.85 220.382 29.18 222.122 29.84C223.882 30.48 225.232 31.39 226.172 32.57C227.132 33.73 227.612 35.09 227.612 36.65C227.612 37.81 227.342 38.87 226.802 39.83C226.262 40.77 225.482 41.59 224.462 42.29C223.442 42.97 222.212 43.5 220.772 43.88C219.332 44.24 217.712 44.42 215.912 44.42ZM218.612 39.86C220.132 39.86 221.522 39.77 222.782 39.59C224.062 39.39 225.082 39.06 225.842 38.6C226.622 38.14 227.012 37.49 227.012 36.65C227.012 35.79 226.622 35.13 225.842 34.67C225.082 34.21 224.062 33.89 222.782 33.71C221.522 33.53 220.132 33.44 218.612 33.44C216.572 33.44 214.992 33.71 213.872 34.25C212.752 34.77 212.192 35.57 212.192 36.65C212.192 37.35 212.442 37.94 212.942 38.42C213.442 38.9 214.172 39.26 215.132 39.5C216.092 39.74 217.252 39.86 218.612 39.86ZM227.012 29.3H234.212V44H227.432C227.432 44 227.392 43.77 227.312 43.31C227.252 42.85 227.182 42.19 227.102 41.33C227.042 40.47 227.012 39.46 227.012 38.3V29.3ZM264.346 37.61C264.346 39.05 263.896 40.28 262.996 41.3C262.096 42.32 260.676 43.1 258.736 43.64C256.796 44.18 254.276 44.45 251.176 44.45C248.076 44.45 245.436 44.2 243.256 43.7C241.096 43.2 239.446 42.38 238.306 41.24C237.186 40.1 236.626 38.58 236.626 36.68C236.626 34.78 237.186 33.26 238.306 32.12C239.446 30.96 241.096 30.13 243.256 29.63C245.436 29.11 248.076 28.85 251.176 28.85C254.276 28.85 256.786 29.12 258.706 29.66C260.626 30.2 262.036 30.98 262.936 32C263.836 33.02 264.296 34.24 264.316 35.66H257.716C257.396 34.88 256.676 34.28 255.556 33.86C254.436 33.42 252.976 33.2 251.176 33.2C249.716 33.2 248.446 33.31 247.366 33.53C246.286 33.73 245.446 34.08 244.846 34.58C244.266 35.08 243.976 35.78 243.976 36.68C243.976 37.56 244.266 38.25 244.846 38.75C245.426 39.25 246.256 39.6 247.336 39.8C248.416 40 249.696 40.1 251.176 40.1C252.976 40.1 254.436 39.89 255.556 39.47C256.696 39.03 257.426 38.41 257.746 37.61H264.346ZM277.64 44.42C275.48 44.42 273.56 44.12 271.88 43.52C270.2 42.9 268.87 42.01 267.89 40.85C266.93 39.69 266.45 38.29 266.45 36.65C266.45 34.93 266.93 33.49 267.89 32.33C268.87 31.17 270.2 30.3 271.88 29.72C273.56 29.14 275.48 28.85 277.64 28.85C280.04 28.85 282.11 29.18 283.85 29.84C285.61 30.48 286.96 31.39 287.9 32.57C288.86 33.73 289.34 35.09 289.34 36.65C289.34 37.81 289.07 38.87 288.53 39.83C287.99 40.77 287.21 41.59 286.19 42.29C285.17 42.97 283.94 43.5 282.5 43.88C281.06 44.24 279.44 44.42 277.64 44.42ZM280.34 39.86C281.86 39.86 283.25 39.77 284.51 39.59C285.79 39.39 286.81 39.06 287.57 38.6C288.35 38.14 288.74 37.49 288.74 36.65C288.74 35.79 288.35 35.13 287.57 34.67C286.81 34.21 285.79 33.89 284.51 33.71C283.25 33.53 281.86 33.44 280.34 33.44C278.3 33.44 276.72 33.71 275.6 34.25C274.48 34.77 273.92 35.57 273.92 36.65C273.92 37.35 274.17 37.94 274.67 38.42C275.17 38.9 275.9 39.26 276.86 39.5C277.82 39.74 278.98 39.86 280.34 39.86ZM288.74 29.3H295.94V44H289.16C289.16 44 289.12 43.77 289.04 43.31C288.98 42.85 288.91 42.19 288.83 41.33C288.77 40.47 288.74 39.46 288.74 38.3V29.3ZM298.655 29.3H305.855V44H298.655V29.3ZM316.655 28.85C317.835 28.85 318.975 28.98 320.075 29.24C321.175 29.48 322.155 29.9 323.015 30.5C323.895 31.1 324.595 31.92 325.115 32.96C325.635 34 325.895 35.31 325.895 36.89V44H318.695V37.79C318.695 36.29 318.305 35.23 317.525 34.61C316.745 33.97 315.335 33.65 313.295 33.65C312.215 33.65 311.165 33.77 310.145 34.01C309.145 34.25 308.245 34.54 307.445 34.88C306.645 35.2 306.015 35.52 305.555 35.84L305.495 34.7C305.575 34.34 305.845 33.84 306.305 33.2C306.785 32.54 307.475 31.88 308.375 31.22C309.275 30.56 310.405 30 311.765 29.54C313.145 29.08 314.775 28.85 316.655 28.85Z" fill="#009387"/>
</svg>
