<?xml version="1.0" standalone="no"?>
<!DOCTYPE svg PUBLIC "-//W3C//DTD SVG 20010904//EN"
 "http://www.w3.org/TR/2001/REC-SVG-20010904/DTD/svg10.dtd">
<svg version="1.0" xmlns="http://www.w3.org/2000/svg"
 width="2560.000000pt" height="692.000000pt" viewBox="0 0 2560.000000 692.000000"
 preserveAspectRatio="xMidYMid meet">

<g transform="translate(0.000000,692.000000) scale(0.100000,-0.100000)"
fill="#000000" stroke="none">
<path d="M13565 6474 c-528 -101 -961 -183 -963 -184 -1 0 -1 -39 0 -87 l3
-88 133 -18 c260 -35 327 -86 395 -302 58 -185 70 -363 88 -1291 13 -668 -3
-3358 -21 -3758 -6 -120 -9 -220 -7 -222 7 -7 388 -82 573 -113 463 -78 788
-105 1165 -98 299 5 447 22 674 77 572 137 1041 470 1340 951 219 353 342 779
364 1265 27 584 -88 1067 -347 1464 -276 423 -649 681 -1098 761 -154 27 -419
30 -575 5 -221 -34 -466 -107 -688 -205 -52 -22 -96 -41 -98 -41 -2 0 -3 138
-3 308 0 483 25 1379 46 1675 5 71 4 87 -7 86 -8 -1 -446 -84 -974 -185z
m1572 -2134 c250 -60 434 -229 589 -540 144 -288 211 -600 221 -1025 13 -534
-63 -1006 -223 -1400 -98 -238 -204 -407 -348 -550 -83 -83 -117 -109 -191
-147 -159 -81 -262 -94 -458 -59 -66 11 -134 21 -152 21 l-33 0 -6 68 c-22
239 -46 1719 -46 2819 l0 772 49 15 c26 8 81 19 122 25 41 6 85 13 99 15 14 2
86 4 160 5 103 1 154 -4 217 -19z"/>
<path d="M130 6405 c0 -111 2 -125 17 -125 63 0 261 -25 328 -41 187 -46 340
-156 403 -290 38 -79 77 -223 91 -334 12 -89 45 -563 61 -870 44 -867 42
-1908 -5 -2695 -41 -667 -78 -904 -171 -1080 -58 -111 -169 -199 -301 -240
-51 -16 -372 -70 -413 -70 -6 0 -10 -46 -10 -125 l0 -125 1650 0 1650 0 0 125
c0 123 0 125 -22 125 -13 0 -104 7 -203 15 -210 16 -305 41 -404 105 -166 107
-247 258 -285 526 -38 264 -86 1266 -86 1781 l0 202 228 -4 c597 -13 605 -14
740 -82 212 -106 378 -366 472 -740 l11 -43 124 0 125 0 0 1040 0 1040 -125 0
-124 0 -11 -42 c-125 -495 -347 -755 -680 -797 -41 -5 -230 -12 -419 -15
l-344 -6 6 652 c9 793 28 1410 55 1743 l7 80 585 0 c568 0 588 -1 698 -23 555
-112 943 -527 1187 -1269 14 -46 31 -83 36 -83 6 0 75 19 153 41 l144 41 -4
97 c-8 159 -44 1432 -44 1525 l0 86 -2560 0 -2560 0 0 -125z"/>
<path d="M6675 4899 c-530 -42 -982 -231 -1321 -551 -389 -369 -614 -826 -686
-1398 -20 -157 -16 -592 5 -750 58 -413 173 -731 377 -1038 155 -234 303 -385
509 -524 229 -153 504 -253 841 -305 167 -26 676 -26 838 0 227 37 455 103
632 185 403 185 770 552 975 975 122 253 190 498 225 817 16 140 13 513 -5
665 -89 754 -472 1383 -1025 1683 -351 190 -862 280 -1365 241z m296 -289 c30
-5 90 -28 135 -50 186 -91 334 -305 448 -650 71 -216 116 -447 148 -775 17
-174 17 -910 0 -1105 -60 -680 -190 -1078 -422 -1294 -178 -164 -429 -201
-643 -93 -428 214 -665 1075 -618 2242 30 745 136 1202 343 1478 148 198 376
290 609 247z"/>
<path d="M10098 4717 l-968 -192 0 -87 0 -86 78 -6 c197 -15 280 -45 361 -131
91 -96 141 -232 161 -435 49 -504 68 -1094 52 -1618 -17 -543 -48 -975 -78
-1102 -9 -36 -31 -96 -49 -135 -80 -168 -188 -236 -422 -265 l-103 -13 0 -119
0 -118 1355 0 1355 0 0 118 0 119 -180 12 c-191 13 -271 28 -329 63 -112 66
-191 191 -226 356 -15 72 -46 387 -67 677 -19 266 -17 1386 4 1648 l15 199 53
53 c61 61 142 105 250 134 297 80 594 39 934 -130 65 -33 120 -58 122 -57 6 7
457 1144 461 1164 4 18 -7 25 -89 56 -181 69 -407 100 -576 79 -254 -31 -521
-177 -758 -415 -140 -141 -233 -272 -332 -471 l-64 -130 6 513 c3 281 5 512 3
511 -1 -1 -437 -87 -969 -192z"/>
<path d="M23678 4900 c-281 -24 -523 -88 -740 -195 -161 -80 -278 -165 -414
-300 -134 -133 -202 -227 -275 -379 -130 -273 -151 -644 -53 -944 97 -296 316
-515 709 -707 150 -73 197 -93 435 -182 454 -170 685 -299 796 -446 122 -162
161 -335 119 -531 -25 -120 -77 -209 -185 -317 -137 -139 -238 -187 -442 -209
-230 -25 -466 33 -674 165 -247 158 -485 491 -654 917 -29 73 -54 134 -56 136
-2 3 -205 -55 -210 -60 -3 -4 48 -1272 51 -1276 11 -12 318 -107 455 -141 185
-46 326 -71 540 -98 185 -23 799 -26 950 -5 483 68 832 229 1098 506 227 237
336 514 349 891 19 574 -188 903 -748 1187 -127 65 -216 103 -524 224 -218 85
-450 198 -563 273 -101 68 -214 182 -255 258 -102 190 -85 483 38 678 40 63
127 149 182 182 157 92 397 103 616 29 141 -48 242 -113 362 -231 163 -162
295 -381 401 -670 26 -71 50 -134 54 -138 7 -8 188 39 203 53 7 6 -20 702 -39
1001 l-6 97 -78 31 c-242 95 -523 160 -829 191 -149 15 -488 20 -613 10z"/>
<path d="M19594 4874 c-661 -80 -1148 -374 -1506 -908 -93 -139 -201 -355
-253 -505 -215 -625 -185 -1391 76 -1940 265 -558 785 -984 1392 -1140 185
-48 303 -63 550 -68 445 -10 727 47 1072 217 313 154 523 309 690 511 l67 79
-62 75 c-37 44 -67 72 -74 68 -6 -4 -46 -31 -89 -59 -319 -214 -735 -295
-1177 -229 -313 47 -564 168 -766 369 -211 212 -360 476 -434 775 -48 192 -64
353 -61 639 l1 52 1370 0 1370 0 0 33 c-1 78 -21 328 -35 425 -35 239 -106
473 -205 678 -264 545 -703 858 -1310 933 -116 15 -480 12 -616 -5z m381 -285
c47 -17 76 -38 130 -93 138 -139 218 -356 265 -721 21 -163 44 -615 32 -627
-7 -6 -946 -28 -1218 -28 l-141 0 4 73 c8 145 34 355 59 476 74 363 235 696
402 834 133 110 314 144 467 86z"/>
</g>
</svg>
