<?xml version="1.0" standalone="no"?>
<!DOCTYPE svg PUBLIC "-//W3C//DTD SVG 20010904//EN"
 "http://www.w3.org/TR/2001/REC-SVG-20010904/DTD/svg10.dtd">
<svg version="1.0" xmlns="http://www.w3.org/2000/svg"
 width="1281.000000pt" height="1024.000000pt" viewBox="0 0 1281.000000 1024.000000"
 preserveAspectRatio="xMidYMid meet">

<g transform="translate(0.000000,1024.000000) scale(0.100000,-0.100000)"
fill="#000000" stroke="none">
<path d="M1870 5120 l0 -1670 405 0 405 0 0 720 0 720 635 0 635 0 0 320 0
320 -635 0 -635 0 0 310 0 310 690 0 690 0 0 320 0 320 -1095 0 -1095 0 0
-1670z"/>
<path d="M4370 6635 l0 -156 153 3 152 3 3 48 3 48 822 -4 c722 -3 834 -5 917
-20 123 -23 206 -49 305 -98 229 -113 379 -298 427 -526 28 -137 21 -374 -15
-514 -69 -265 -240 -465 -540 -628 -45 -25 -74 -47 -70 -54 3 -5 181 -231 395
-501 l388 -490 -40 -41 -40 -41 108 -107 107 -107 108 108 107 107 -108 108
-107 107 -31 -31 -31 -31 -352 443 c-193 244 -350 447 -348 450 1 4 45 35 97
70 109 72 256 214 319 308 60 88 108 197 138 310 21 80 26 125 30 276 4 155 2
194 -15 279 -54 257 -224 469 -480 596 -248 123 -420 140 -1424 140 l-667 0
-3 48 -3 47 -152 3 -153 3 0 -156z m250 0 l0 -95 -95 0 -95 0 0 95 0 95 95 0
95 0 0 -95z m2893 -3037 l-67 -68 -63 62 c-35 34 -63 67 -63 72 0 6 28 39 62
73 l62 63 68 -67 68 -67 -67 -68z"/>
<path d="M7986 5978 c-3 -447 -8 -1199 -10 -1671 l-5 -858 667 4 c703 4 747 7
1030 57 210 38 401 112 567 221 106 70 303 268 382 385 213 314 304 620 304
1024 0 509 -131 872 -425 1178 -255 264 -536 400 -936 453 -53 7 -362 13 -826
16 l-742 5 -6 -814z m1442 168 c134 -34 281 -118 384 -219 130 -128 204 -280
244 -502 24 -137 25 -432 1 -565 -60 -328 -215 -554 -470 -681 -140 -71 -192
-79 -499 -79 l-268 0 0 358 c0 197 -3 664 -7 1037 l-6 677 279 -5 c210 -4 295
-9 342 -21z"/>
<path d="M6200 6315 l0 -155 60 0 60 0 0 -161 0 -161 -41 37 c-86 77 -185 104
-421 112 l-177 6 -3 51 -3 51 -152 3 -153 3 0 -156 0 -155 55 0 55 0 0 -255 0
-255 -55 0 -55 0 0 -155 0 -155 155 0 155 0 0 50 c0 48 1 50 28 50 15 0 90 5
168 10 208 14 296 45 397 139 l47 44 0 -182 0 -181 -60 0 -60 0 0 -150 0 -150
155 0 155 0 0 150 0 150 -60 0 -60 0 0 240 0 240 60 0 61 0 -3 153 -3 152 -57
3 -58 3 0 234 0 235 60 0 60 0 0 155 0 155 -155 0 -155 0 0 -155z m250 0 l0
-95 -95 0 -95 0 0 95 0 95 95 0 95 0 0 -95z m-830 -370 l0 -95 -95 0 -95 0 0
95 0 95 95 0 95 0 0 -95z m487 -79 c66 -21 131 -71 160 -121 13 -22 23 -43 23
-47 0 -5 -20 -8 -45 -8 l-45 0 0 -155 0 -155 35 0 c19 0 35 -4 35 -8 0 -20
-62 -92 -102 -119 -87 -60 -198 -83 -390 -83 l-97 0 -3 53 -3 52 -47 3 -48 3
0 255 0 254 50 0 50 0 0 51 0 51 188 -5 c136 -3 201 -9 239 -21z m343 -331 l0
-95 -95 0 -95 0 0 95 0 95 95 0 95 0 0 -95z m-830 -410 l0 -95 -95 0 -95 0 0
95 0 95 95 0 95 0 0 -95z m830 -375 l0 -90 -95 0 -95 0 0 90 0 90 95 0 95 0 0
-90z"/>
<path d="M5530 4015 l0 -555 560 0 561 0 -162 213 c-89 116 -278 366 -422 555
l-260 342 -138 0 -139 0 0 -555z"/>
<path d="M4412 2825 c-73 -23 -112 -72 -112 -142 0 -83 42 -117 189 -158 117
-32 151 -56 151 -109 0 -93 -157 -127 -281 -59 -42 23 -52 25 -60 12 -16 -26
-5 -44 46 -69 43 -22 63 -25 150 -25 88 0 105 3 138 23 88 55 94 181 11 233
-19 11 -80 34 -137 49 -76 22 -108 35 -124 55 -39 45 -23 105 34 134 36 18
152 13 200 -9 43 -19 43 -19 54 2 15 28 -1 42 -70 62 -65 19 -131 19 -189 1z"/>
<path d="M4947 2834 c-4 -4 -7 -18 -7 -31 0 -23 2 -23 100 -23 l100 0 0 -255
0 -255 30 0 30 0 0 255 0 255 101 0 100 0 -3 28 -3 27 -221 3 c-121 1 -223 -1
-227 -4z"/>
<path d="M5680 2652 c0 -225 10 -272 69 -325 51 -46 97 -60 186 -55 62 3 80 8
116 33 77 54 84 79 87 323 l3 213 -28 -3 -28 -3 -5 -207 c-5 -226 -7 -233 -73
-282 -38 -28 -139 -29 -186 -1 -66 39 -76 75 -79 298 l-4 197 -29 0 -29 0 0
-188z"/>
<path d="M6530 2555 l0 -287 158 4 c132 3 164 7 203 24 66 30 113 77 138 135
50 115 34 225 -46 310 -68 72 -123 90 -305 96 l-148 6 0 -288z m340 201 c85
-44 120 -104 120 -201 0 -75 -15 -118 -56 -159 -53 -53 -96 -66 -226 -66
l-118 0 0 226 0 226 123 -4 c93 -3 130 -8 157 -22z"/>
<path d="M7395 2828 c-3 -7 -4 -135 -3 -283 l3 -270 33 -3 32 -3 -2 283 -3
283 -28 3 c-16 2 -29 -2 -32 -10z"/>
<path d="M7985 2822 c-71 -23 -156 -109 -176 -177 -29 -101 -8 -208 55 -282
15 -17 54 -46 88 -62 52 -27 72 -31 138 -31 66 0 86 4 138 31 99 49 152 131
155 237 3 93 -19 149 -82 212 -86 86 -198 111 -316 72z m211 -66 c81 -38 124
-110 124 -208 0 -129 -96 -222 -230 -222 -76 0 -130 24 -177 78 -42 46 -56 96
-51 172 5 84 41 138 117 177 71 35 145 37 217 3z"/>
</g>
</svg>
