<svg width="77" height="73" viewBox="0 0 77 73" fill="none" xmlns="http://www.w3.org/2000/svg">
<path d="M67.2632 60.0051C62.1875 65.604 55.4337 69.6008 47.903 71.4621C40.3723 73.3235 32.4226 72.961 25.1146 70.423C17.8065 67.885 11.4875 63.2922 7.00057 57.2572C2.51361 51.2223 0.0720422 44.0321 0.00156899 36.646C-0.0689042 29.2598 2.23507 22.0289 6.60614 15.9178C10.9772 9.80669 17.2075 5.10598 24.466 2.44276C31.7244 -0.220456 39.6658 -0.719555 47.2308 1.01205C54.7958 2.74365 61.6247 6.62362 66.8065 12.1344L61.002 17.0517C56.8739 12.6615 51.4337 9.57053 45.4069 8.19104C39.3802 6.81154 33.0536 7.20915 27.2711 9.33083C21.4886 11.4525 16.5252 15.1974 13.0429 20.0658C9.5607 24.9343 7.72522 30.6949 7.78136 36.5791C7.83751 42.4633 9.7826 48.1914 13.3572 52.9992C16.9317 57.807 21.9658 61.4659 27.7879 63.4878C33.6099 65.5098 39.943 65.7985 45.9424 64.3157C51.9418 62.8328 57.3223 59.6488 61.3659 55.1884L67.2632 60.0051Z" fill="url(#paint0_linear_170_243)"/>
<path opacity="0.1" d="M25.3509 22.7556L32.6585 19.6406L33.465 27.9544L36.7074 42.4981L42.0564 49.3386L41.5791 50.8119H37.448C37.448 50.8119 36.263 57.0419 31.8356 57.0419C27.5399 57.0419 26.6676 52.7693 26.6676 52.7693L25.0053 52.2852L24.709 49.8437L21.2857 47.6758L19.6562 41.4458L21.2857 35.2157V28.9857L25.3509 22.7556Z" fill="#69FFA5"/>
<path fill-rule="evenodd" clip-rule="evenodd" d="M27.832 50.4536C27.832 50.2888 27.9365 50.1553 28.0653 50.1553H41.1334C41.2623 50.1553 41.3667 50.2888 41.3667 50.4536C41.3667 50.6183 41.2623 50.7519 41.1334 50.7519H28.0653C27.9365 50.7519 27.832 50.6183 27.832 50.4536Z" fill="#69FFA5"/>
<path fill-rule="evenodd" clip-rule="evenodd" d="M24.1226 24.5574C24.2258 24.6561 24.2469 24.843 24.1698 24.975L21.7803 29.0629V34.9412C21.7803 34.9794 21.7746 35.0173 21.7634 35.0527L19.9193 40.9071L21.743 47.8626L24.4749 50.2054C24.5819 50.2972 24.6105 50.4825 24.5387 50.6193C24.467 50.7562 24.3221 50.7927 24.2151 50.701L21.4171 48.3015C21.3743 48.2649 21.3423 48.2111 21.3259 48.1486L19.4496 40.9925C19.432 40.9252 19.4337 40.852 19.4544 40.7862L21.3138 34.8834V28.9638C21.3138 28.8994 21.3301 28.8367 21.3602 28.7852L23.7961 24.6178C23.8732 24.4858 24.0194 24.4588 24.1226 24.5574Z" fill="#69FFA5"/>
<path fill-rule="evenodd" clip-rule="evenodd" d="M40.425 18.1953C40.4392 18.359 40.3468 18.5064 40.2188 18.5245L32.7911 19.5729L27.1065 22.2335C26.9855 22.2902 26.8515 22.2107 26.8072 22.0559C26.763 21.9012 26.8251 21.7299 26.9461 21.6733L32.6573 19.0003C32.6749 18.992 32.6932 18.9865 32.7118 18.9839L40.1676 17.9315C40.2956 17.9134 40.4109 18.0315 40.425 18.1953Z" fill="#69FFA5"/>
<path fill-rule="evenodd" clip-rule="evenodd" d="M43.7039 18.7389C43.7385 18.5802 43.8671 18.4873 43.9912 18.5315L52.3851 21.5203C52.4238 21.534 52.4591 21.5604 52.4875 21.5967L56.2236 26.3745C56.261 26.4223 56.2846 26.485 56.2904 26.5523L57.2286 37.2865C57.2336 37.3437 57.2255 37.4015 57.2054 37.453L55.5925 41.5783C55.5668 41.6439 55.5232 41.6951 55.4698 41.7222L51.4046 43.7848C51.3723 43.8012 51.3376 43.8081 51.303 43.8052L48.7817 43.5902L47.891 48.1264C47.8769 48.198 47.8426 48.2604 47.7947 48.3015L44.9967 50.701C44.8897 50.7927 44.7448 50.7562 44.673 50.6193C44.6013 50.4825 44.6299 50.2972 44.7369 50.2054L47.4603 47.8699L48.3766 43.2034C48.4041 43.0635 48.5059 42.9688 48.6184 42.9784L51.2815 43.2054L55.215 41.2096L56.7573 37.2651L55.8359 26.7224L52.2009 22.074L43.8661 19.1063C43.742 19.0621 43.6694 18.8976 43.7039 18.7389Z" fill="#69FFA5"/>
<path fill-rule="evenodd" clip-rule="evenodd" d="M44.1767 31.6854C44.2921 31.6122 44.432 31.6726 44.4892 31.8203L48.8178 42.9965C48.875 43.1441 48.8278 43.323 48.7123 43.3962C48.5969 43.4693 48.457 43.4089 48.3998 43.2613L44.0712 32.0851C44.014 31.9374 44.0612 31.7585 44.1767 31.6854Z" fill="#69FFA5"/>
<path fill-rule="evenodd" clip-rule="evenodd" d="M50.5417 35.8376C50.664 35.8895 50.7301 36.0584 50.6895 36.2147L48.8297 43.3709C48.7891 43.5272 48.657 43.6118 48.5348 43.5599C48.4125 43.5079 48.3463 43.339 48.387 43.1827L50.2468 36.0266C50.2874 35.8702 50.4195 35.7856 50.5417 35.8376Z" fill="#69FFA5"/>
<path fill-rule="evenodd" clip-rule="evenodd" d="M53.1625 35.8549C53.2773 35.78 53.4178 35.8384 53.4763 35.9851L55.5994 41.3101C55.658 41.4569 55.6124 41.6366 55.4976 41.7114C55.3828 41.7862 55.2423 41.7279 55.1838 41.5811L53.0607 36.2561C53.0021 36.1094 53.0477 35.9297 53.1625 35.8549Z" fill="#69FFA5"/>
<path fill-rule="evenodd" clip-rule="evenodd" d="M56.2748 26.4511C56.332 26.5987 56.2848 26.7777 56.1694 26.8508L54.3096 28.0295C54.1941 28.1026 54.0542 28.0423 53.997 27.8946C53.9398 27.747 53.987 27.5681 54.1024 27.4949L55.9622 26.3162C56.0776 26.2431 56.2176 26.3035 56.2748 26.4511Z" fill="#69FFA5"/>
<path fill-rule="evenodd" clip-rule="evenodd" d="M44.6406 30.1635C44.6406 29.9988 44.7451 29.8652 44.8739 29.8652H47.6719C47.8007 29.8652 47.9051 29.9988 47.9051 30.1635C47.9051 30.3283 47.8007 30.4618 47.6719 30.4618H44.8739C44.7451 30.4618 44.6406 30.3283 44.6406 30.1635Z" fill="#69FFA5"/>
<path fill-rule="evenodd" clip-rule="evenodd" d="M42.0391 20.3136C42.1663 20.2868 42.2863 20.3969 42.3072 20.5594L43.2289 27.7156C43.2498 27.8781 43.1638 28.0316 43.0366 28.0584C42.9095 28.0852 42.7895 27.9751 42.7686 27.8125L41.8469 20.6564C41.8259 20.4938 41.912 20.3404 42.0391 20.3136Z" fill="#69FFA5"/>
<path fill-rule="evenodd" clip-rule="evenodd" d="M40.8312 19.6575C40.9236 19.7723 40.9258 19.9611 40.8361 20.0793L37.5608 24.3941C37.4711 24.5123 37.3234 24.5151 37.2309 24.4003C37.1385 24.2856 37.1363 24.0967 37.226 23.9785L40.5013 19.6638C40.591 19.5456 40.7387 19.5428 40.8312 19.6575Z" fill="#69FFA5"/>
<path fill-rule="evenodd" clip-rule="evenodd" d="M32.6696 18.9969C32.7923 18.9464 32.9237 19.0325 32.9632 19.1894L33.9013 22.9148C33.9408 23.0716 33.8734 23.2396 33.7508 23.2902C33.6282 23.3407 33.4967 23.2545 33.4572 23.0976L32.5191 19.3722C32.4796 19.2154 32.547 19.0474 32.6696 18.9969Z" fill="#69FFA5"/>
<path fill-rule="evenodd" clip-rule="evenodd" d="M52.5214 21.6458C52.5915 21.784 52.5607 21.9687 52.4526 22.0584L44.536 28.6252C44.4279 28.7148 44.2835 28.6755 44.2134 28.5372C44.1433 28.399 44.1741 28.2143 44.2821 28.1246L52.1987 21.5578C52.3068 21.4682 52.4513 21.5076 52.5214 21.6458Z" fill="#69FFA5"/>
<path fill-rule="evenodd" clip-rule="evenodd" d="M42.9954 28.0839C42.0971 28.0839 41.3689 29.0152 41.3689 30.164C41.3689 31.3128 42.0971 32.244 42.9954 32.244C43.8938 32.244 44.622 31.3128 44.622 30.164C44.622 29.0152 43.8938 28.0839 42.9954 28.0839ZM40.9023 30.164C40.9023 28.6857 41.8395 27.4873 42.9954 27.4873C44.1514 27.4873 45.0885 28.6857 45.0885 30.164C45.0885 31.6423 44.1514 32.8406 42.9954 32.8406C41.8395 32.8406 40.9023 31.6423 40.9023 30.164Z" fill="#69FFA5"/>
<path fill-rule="evenodd" clip-rule="evenodd" d="M42.9954 48.374C42.0971 48.374 41.3689 49.3052 41.3689 50.454C41.3689 51.6028 42.0971 52.5341 42.9954 52.5341C43.8938 52.5341 44.622 51.6028 44.622 50.454C44.622 49.3052 43.8938 48.374 42.9954 48.374ZM40.9023 50.454C40.9023 48.9757 41.8395 47.7773 42.9954 47.7773C44.1514 47.7773 45.0885 48.9757 45.0885 50.454C45.0885 51.9323 44.1514 53.1307 42.9954 53.1307C41.8395 53.1307 40.9023 51.9323 40.9023 50.454Z" fill="#69FFA5"/>
<path fill-rule="evenodd" clip-rule="evenodd" d="M42.0657 16.1493C41.1674 16.1493 40.4392 17.0806 40.4392 18.2294C40.4392 19.3782 41.1674 20.3095 42.0657 20.3095C42.9641 20.3095 43.6923 19.3782 43.6923 18.2294C43.6923 17.0806 42.9641 16.1493 42.0657 16.1493ZM39.9727 18.2294C39.9727 16.7511 40.9098 15.5527 42.0657 15.5527C43.2217 15.5527 44.1588 16.7511 44.1588 18.2294C44.1588 19.7077 43.2217 20.9061 42.0657 20.9061C40.9098 20.9061 39.9727 19.7077 39.9727 18.2294Z" fill="#69FFA5"/>
<path fill-rule="evenodd" clip-rule="evenodd" d="M26.2064 48.374C25.308 48.374 24.5798 49.3052 24.5798 50.454C24.5798 51.6028 25.308 52.5341 26.2064 52.5341C27.1047 52.5341 27.8329 51.6028 27.8329 50.454C27.8329 49.3052 27.1047 48.374 26.2064 48.374ZM24.1133 50.454C24.1133 48.9757 25.0504 47.7773 26.2064 47.7773C27.3624 47.7773 28.2995 48.9757 28.2995 50.454C28.2995 51.9323 27.3624 53.1307 26.2064 53.1307C25.0504 53.1307 24.1133 51.9323 24.1133 50.454Z" fill="#69FFA5"/>
<path fill-rule="evenodd" clip-rule="evenodd" d="M28.0697 34.04C27.1713 34.04 26.4431 34.9712 26.4431 36.12C26.4431 37.2688 27.1713 38.2001 28.0697 38.2001C28.968 38.2001 29.6962 37.2688 29.6962 36.12C29.6962 34.9712 28.968 34.04 28.0697 34.04ZM25.9766 36.12C25.9766 34.6417 26.9137 33.4434 28.0697 33.4434C29.2256 33.4434 30.1627 34.6417 30.1627 36.12C30.1627 37.5983 29.2256 38.7967 28.0697 38.7967C26.9137 38.7967 25.9766 37.5983 25.9766 36.12Z" fill="#69FFA5"/>
<path fill-rule="evenodd" clip-rule="evenodd" d="M39.108 45.4646C39.1994 45.3485 39.3471 45.3491 39.4379 45.466L41.7585 48.4548C41.8493 48.5717 41.8488 48.7606 41.7574 48.8766C41.6659 48.9927 41.5182 48.9921 41.4275 48.8752L39.1068 45.8864C39.016 45.7695 39.0166 45.5806 39.108 45.4646Z" fill="#69FFA5"/>
<path fill-rule="evenodd" clip-rule="evenodd" d="M41.8183 31.6795C41.9363 31.7456 41.9901 31.9215 41.9384 32.0724L39.486 39.2285C39.4343 39.3794 39.2968 39.4482 39.1788 39.382C39.0608 39.3159 39.007 39.14 39.0587 38.9891L41.5111 31.8329C41.5628 31.682 41.7004 31.6133 41.8183 31.6795Z" fill="#69FFA5"/>
<path fill-rule="evenodd" clip-rule="evenodd" d="M35.0515 32.3921C35.1793 32.3713 35.2961 32.4869 35.3124 32.6503L35.7732 37.2808C35.7895 37.4442 35.699 37.5935 35.5712 37.6143C35.4434 37.6351 35.3267 37.5195 35.3104 37.3561L34.8495 32.7256C34.8333 32.5622 34.9237 32.4129 35.0515 32.3921Z" fill="#69FFA5"/>
<path fill-rule="evenodd" clip-rule="evenodd" d="M38.1176 28.2788C38.1586 28.1225 38.2908 28.0384 38.413 28.0908L41.2109 29.2905C41.3331 29.3428 41.3989 29.5119 41.3579 29.6681C41.317 29.8243 41.1848 29.9085 41.0626 29.8561L38.2646 28.6564C38.1425 28.604 38.0767 28.435 38.1176 28.2788Z" fill="#69FFA5"/>
<path fill-rule="evenodd" clip-rule="evenodd" d="M42.995 32.2422C43.1238 32.2422 43.2283 32.3757 43.2283 32.5405V48.0525C43.2283 48.2172 43.1238 48.3508 42.995 48.3508C42.8662 48.3508 42.7617 48.2172 42.7617 48.0525V32.5405C42.7617 32.3757 42.8662 32.2422 42.995 32.2422Z" fill="#69FFA5"/>
<path fill-rule="evenodd" clip-rule="evenodd" d="M37.4034 50.1553C37.5322 50.1553 37.6367 50.2888 37.6367 50.4536C37.6367 52.2825 36.8728 53.8513 35.7739 54.9531C34.676 56.0539 33.2265 56.7083 31.8075 56.7083C31.6787 56.7083 31.5742 56.5748 31.5742 56.41C31.5742 56.2453 31.6787 56.1117 31.8075 56.1117C33.1206 56.1117 34.4691 55.5033 35.4861 54.4836C36.5022 53.4648 37.1701 52.0554 37.1701 50.4536C37.1701 50.2888 37.2746 50.1553 37.4034 50.1553Z" fill="#69FFA5"/>
<path fill-rule="evenodd" clip-rule="evenodd" d="M27.1466 52.7786C27.1274 52.6386 27.0318 52.5322 26.9169 52.5322C26.788 52.5322 26.6836 52.6658 26.6836 52.8305H26.9169C26.6836 52.8305 26.6836 52.831 26.6836 52.8314L26.6836 52.8323L26.6836 52.834L26.6837 52.8375L26.6838 52.8446C26.684 52.8493 26.6843 52.8541 26.6846 52.8589C26.6853 52.8684 26.6863 52.8782 26.6876 52.8881C26.6902 52.9079 26.6942 52.9288 26.6997 52.951C26.7105 52.9951 26.7278 53.0475 26.7547 53.1114C26.8081 53.2382 26.9052 53.4238 27.0839 53.6959L27.0839 53.6959L27.0857 53.6987C28.2354 55.4068 29.8587 56.7069 31.8051 56.7069C31.9339 56.7069 32.0383 56.5733 32.0383 56.4086C32.0383 56.2438 31.9339 56.1103 31.8051 56.1103C30.0323 56.1103 28.5288 54.9275 27.4402 53.3108C27.2739 53.0575 27.1984 52.9068 27.1655 52.8285C27.1574 52.8094 27.1522 52.7954 27.149 52.786C27.148 52.783 27.1472 52.7806 27.1466 52.7786Z" fill="#69FFA5"/>
<path fill-rule="evenodd" clip-rule="evenodd" d="M33.4072 44.9477C33.4667 45.0939 33.4223 45.274 33.308 45.3501L27.7121 49.0755C27.5979 49.1515 27.457 49.0948 27.3975 48.9486C27.338 48.8025 27.3824 48.6224 27.4967 48.5463L33.0926 44.8209C33.2069 44.7448 33.3478 44.8016 33.4072 44.9477Z" fill="#69FFA5"/>
<path fill-rule="evenodd" clip-rule="evenodd" d="M29.6692 36.8089C29.7621 36.6947 29.9097 36.6984 29.999 36.8171L32.9122 40.6898C33.0015 40.8085 32.9987 40.9974 32.9058 41.1116C32.813 41.2258 32.6653 41.2222 32.576 41.1034L29.6628 37.2307C29.5735 37.112 29.5764 36.9231 29.6692 36.8089Z" fill="#69FFA5"/>
<path fill-rule="evenodd" clip-rule="evenodd" d="M26.932 23.6292C26.9814 23.4771 27.118 23.405 27.2369 23.4682L31.4339 25.6993C31.5528 25.7625 31.6092 25.9371 31.5597 26.0892C31.5103 26.2414 31.3738 26.3134 31.2548 26.2502L27.0579 24.0192C26.9389 23.9559 26.8825 23.7813 26.932 23.6292Z" fill="#69FFA5"/>
<path fill-rule="evenodd" clip-rule="evenodd" d="M31.9916 31.1852C32.0687 31.3172 32.0475 31.5041 31.9443 31.6027L29.1463 34.2758C29.0431 34.3744 28.8969 34.3473 28.8198 34.2153C28.7427 34.0833 28.7639 33.8964 28.8671 33.7978L31.6651 31.1248C31.7683 31.0262 31.9145 31.0532 31.9916 31.1852Z" fill="#69FFA5"/>
<path fill-rule="evenodd" clip-rule="evenodd" d="M27.279 37.9839C27.3832 38.0809 27.4061 38.2675 27.3303 38.4007L21.7344 48.2298C21.6585 48.363 21.5126 48.3924 21.4085 48.2954C21.3043 48.1984 21.2814 48.0119 21.3572 47.8787L26.9531 38.0495C27.029 37.9163 27.1749 37.887 27.279 37.9839Z" fill="#69FFA5"/>
<path fill-rule="evenodd" clip-rule="evenodd" d="M26.4283 36.4029C26.4877 36.5491 26.4433 36.7292 26.329 36.8052L19.7785 41.162C19.6642 41.238 19.5233 41.1812 19.4639 41.035C19.4044 40.8889 19.4489 40.7087 19.5632 40.6327L26.1137 36.2759C26.228 36.1999 26.3688 36.2567 26.4283 36.4029Z" fill="#69FFA5"/>
<path fill-rule="evenodd" clip-rule="evenodd" d="M21.3618 28.7789C21.4411 28.649 21.5876 28.6258 21.6892 28.7272L26.9231 33.9469C27.0247 34.0482 27.0428 34.2357 26.9636 34.3656C26.8843 34.4955 26.7377 34.5187 26.6362 34.4174L21.4023 29.1976C21.3007 29.0963 21.2826 28.9088 21.3618 28.7789Z" fill="#69FFA5"/>
<path opacity="0.4" fill-rule="evenodd" clip-rule="evenodd" d="M51.4051 30.4763C51.0221 30.4763 50.7116 30.8733 50.7116 31.3631C50.7116 31.8528 51.0221 32.2499 51.4051 32.2499C51.7881 32.2499 52.0985 31.8528 52.0985 31.3631C52.0985 30.8733 51.7881 30.4763 51.4051 30.4763ZM48.3789 31.3631C48.3789 29.2258 49.7338 27.4932 51.4051 27.4932C53.0764 27.4932 54.4313 29.2258 54.4313 31.3631C54.4313 33.5004 53.0764 35.233 51.4051 35.233C49.7338 35.233 48.3789 33.5004 48.3789 31.3631Z" fill="#69FFA5"/>
<path opacity="0.4" fill-rule="evenodd" clip-rule="evenodd" d="M36.4754 41.2106C36.0924 41.2106 35.7819 41.6077 35.7819 42.0974C35.7819 42.5872 36.0924 42.9843 36.4754 42.9843C36.8584 42.9843 37.1689 42.5872 37.1689 42.0974C37.1689 41.6077 36.8584 41.2106 36.4754 41.2106ZM33.4492 42.0974C33.4492 39.9602 34.8041 38.2275 36.4754 38.2275C38.1467 38.2275 39.5016 39.9602 39.5016 42.0974C39.5016 44.2347 38.1467 45.9674 36.4754 45.9674C34.8041 45.9674 33.4492 44.2347 33.4492 42.0974Z" fill="#69FFA5"/>
<path fill-rule="evenodd" clip-rule="evenodd" d="M25.265 20.9277C24.3666 20.9277 23.6384 21.8589 23.6384 23.0077C23.6384 24.1565 24.3666 25.0878 25.265 25.0878C26.1633 25.0878 26.8915 24.1565 26.8915 23.0077C26.8915 21.8589 26.1633 20.9277 25.265 20.9277ZM23.1719 23.0077C23.1719 21.5294 24.109 20.3311 25.265 20.3311C26.4209 20.3311 27.3581 21.5294 27.3581 23.0077C27.3581 24.486 26.4209 25.6844 25.265 25.6844C24.109 25.6844 23.1719 24.486 23.1719 23.0077Z" fill="#69FFA5"/>
<path opacity="0.4" fill-rule="evenodd" clip-rule="evenodd" d="M34.6043 26.8776C34.2213 26.8776 33.9108 27.2747 33.9108 27.7644C33.9108 28.2542 34.2213 28.6513 34.6043 28.6513C34.9873 28.6513 35.2978 28.2542 35.2978 27.7644C35.2978 27.2747 34.9873 26.8776 34.6043 26.8776ZM31.5781 27.7644C31.5781 25.6272 32.933 23.8945 34.6043 23.8945C36.2756 23.8945 37.6305 25.6271 37.6305 27.7644C37.6305 29.9017 36.2756 31.6343 34.6043 31.6343C32.933 31.6343 31.5781 29.9017 31.5781 27.7644Z" fill="#69FFA5"/>
<defs>
<linearGradient id="paint0_linear_170_243" x1="38.2612" y1="0" x2="38.2612" y2="72.6342" gradientUnits="userSpaceOnUse">
<stop stop-color="#00FDBB"/>
<stop offset="1" stop-color="#008BD1"/>
</linearGradient>
</defs>
</svg>
