<svg width="59" height="56" viewBox="0 0 59 56" fill="none" xmlns="http://www.w3.org/2000/svg">
<path d="M40.9593 28.6713C41.2841 28.3465 41.2841 27.82 40.9593 27.4952L35.6668 22.2028C35.342 21.878 34.8155 21.878 34.4907 22.2028C34.1659 22.5275 34.1659 23.0541 34.4907 23.3789L39.1951 28.0833L34.4907 32.7877C34.166 33.1125 34.166 33.639 34.4907 33.9638C34.8155 34.2886 35.3421 34.2886 35.6668 33.9638L40.9593 28.6713ZM17.9998 28.0833L17.9998 28.915L40.3712 28.9149L40.3712 28.0833L40.3712 27.2516L17.9998 27.2517L17.9998 28.0833Z" fill="#009387"/>
<path d="M51.5035 45.9459C47.6169 50.233 42.4456 53.2933 36.6793 54.7186C30.9131 56.1438 24.826 55.8662 19.2302 53.9229C13.6345 51.9795 8.796 48.4628 5.36034 43.8419C1.92467 39.2209 0.0551627 33.7154 0.00120137 28.0598C-0.05276 22.4043 1.71139 16.8675 5.05832 12.1883C8.40525 7.50898 13.1758 3.90965 18.7336 1.87042C24.2914 -0.168804 30.3721 -0.550963 36.1646 0.774924C41.9572 2.10081 47.186 5.0717 51.1537 9.29127L46.7093 13.0565C43.5484 9.69494 39.3828 7.32816 34.7681 6.27188C30.1534 5.2156 25.3092 5.52005 20.8815 7.14461C16.4538 8.76918 12.6533 11.6366 9.98699 15.3644C7.32063 19.0922 5.9152 23.5031 5.95819 28.0086C6.00118 32.5142 7.49054 36.9002 10.2276 40.5815C12.9646 44.2628 16.8192 47.0645 21.2772 48.6126C25.7351 50.1608 30.5844 50.3819 35.1781 49.2465C39.7719 48.1111 43.8917 45.6731 46.9879 42.2577L51.5035 45.9459Z" fill="url(#paint0_linear_163_5716)"/>
<defs>
<linearGradient id="paint0_linear_163_5716" x1="29.2966" y1="0" x2="29.2966" y2="55.616" gradientUnits="userSpaceOnUse">
<stop stop-color="#00FDBB"/>
<stop offset="1" stop-color="#008BD1"/>
</linearGradient>
</defs>
</svg>
