<svg width="44" height="44" viewBox="0 0 44 44" fill="none" xmlns="http://www.w3.org/2000/svg">
<path d="M5.03125 36.537C4.47896 36.537 4.03125 36.0893 4.03125 35.537V28.3911C4.03125 26.0485 4.45892 23.6128 5.31426 21.0838C6.19552 18.5283 7.38781 16.1191 8.89113 13.8564C10.2665 11.7973 11.7887 10.029 13.4577 8.55131C13.7886 8.25826 14.2753 8.23439 14.6431 8.47953L19.7348 11.8724C20.1896 12.1755 20.3158 12.787 20.0295 13.2527C18.7295 15.3674 17.6216 17.5651 16.7058 19.846C15.695 22.4015 15.2025 25.2233 15.2284 28.3113V35.537C15.2284 36.0893 14.7807 36.537 14.2284 36.537H5.03125ZM24.7429 36.537C24.1907 36.537 23.7429 36.0893 23.7429 35.537V28.3911C23.7429 26.0485 24.1706 23.6128 25.0259 21.0838C25.9072 18.5283 27.0995 16.1191 28.6028 13.8564C29.9782 11.7973 31.5004 10.029 33.1693 8.55131C33.5003 8.25826 33.9869 8.23439 34.3548 8.47953L39.4464 11.8724C39.9013 12.1755 40.0275 12.787 39.7412 13.2527C38.4412 15.3674 37.3333 17.5651 36.4175 19.846C35.4067 22.4015 34.9142 25.2233 34.9401 28.3113V35.537C34.9401 36.0893 34.4924 36.537 33.9401 36.537H24.7429Z" fill="#009387"/>
<path d="M15.7285 35.5371C15.7285 36.3655 15.0569 37.0371 14.2285 37.0371H5.03125C4.20286 37.0371 3.53131 36.3655 3.53125 35.5371V28.3916C3.53125 25.9875 3.97045 23.4972 4.84082 20.9238L4.8418 20.9209C5.73692 18.3251 6.94801 15.8779 8.47461 13.5801L8.47559 13.5791C9.87223 11.4883 11.4216 9.6858 13.126 8.17676C13.6339 7.72709 14.3712 7.69803 14.9199 8.06348L20.0117 11.4561C20.6963 11.9122 20.8785 12.8259 20.4551 13.5146C19.1703 15.6046 18.0748 17.7759 17.1699 20.0293C16.1855 22.5179 15.7031 25.2753 15.7285 28.3066V35.5371ZM35.4404 35.5371C35.4404 36.3654 34.7687 37.0369 33.9404 37.0371H24.7432C23.9148 37.0371 23.2432 36.3655 23.2432 35.5371V28.3916C23.2432 25.9875 23.6824 23.4973 24.5527 20.9238L24.5537 20.9209C25.4488 18.3251 26.6599 15.8779 28.1865 13.5801L28.1875 13.5791C29.5842 11.4882 31.1335 9.6858 32.8379 8.17676C33.3458 7.72713 34.0831 7.69794 34.6318 8.06348L39.7236 11.4561C40.4082 11.9122 40.5904 12.8259 40.167 13.5146C38.8822 15.6046 37.7868 17.7759 36.8818 20.0293C35.8975 22.5179 35.415 25.2753 35.4404 28.3066V35.5371Z" stroke="#0A84FF" stroke-opacity="0.41"/>
</svg>
