<?xml version="1.0" standalone="no"?>
<!DOCTYPE svg PUBLIC "-//W3C//DTD SVG 20010904//EN"
 "http://www.w3.org/TR/2001/REC-SVG-20010904/DTD/svg10.dtd">
<svg version="1.0" xmlns="http://www.w3.org/2000/svg"
 width="1200.000000pt" height="649.000000pt" viewBox="0 0 1200.000000 649.000000"
 preserveAspectRatio="xMidYMid meet">

<g transform="translate(0.000000,649.000000) scale(0.100000,-0.100000)"
fill="#000000" stroke="none">
<path d="M4543 6140 l-70 -350 1893 0 1894 0 5 23 c6 24 135 669 135 674 0 2
-852 3 -1894 3 l-1893 0 -70 -350z"/>
<path d="M4380 5397 c0 -5 -129 -651 -135 -676 l-6 -24 1892 6 c1041 4 1895 9
1897 12 3 2 33 147 68 322 35 175 66 328 69 341 l5 22 -1895 0 c-1042 0 -1895
-1 -1895 -3z"/>
<path d="M1027 4268 c-315 -32 -594 -187 -720 -400 -62 -104 -91 -206 -91
-323 -1 -88 2 -107 25 -156 48 -102 135 -175 269 -227 30 -12 182 -55 337 -96
290 -77 325 -89 357 -125 24 -27 32 -100 16 -157 -17 -60 -86 -135 -148 -162
-114 -49 -303 -46 -396 6 -73 42 -99 93 -94 190 l3 72 -281 0 c-258 0 -282 -1
-288 -17 -4 -10 -10 -60 -13 -113 -12 -209 70 -355 249 -443 222 -110 668
-126 971 -36 358 106 559 317 608 639 21 141 -7 238 -95 326 -82 81 -165 115
-529 214 -158 43 -302 88 -320 99 -43 27 -67 70 -67 123 1 89 59 166 165 215
51 24 73 28 150 28 77 0 98 -4 139 -25 68 -35 88 -74 84 -168 l-3 -72 287 0
287 0 8 48 c16 93 9 222 -16 285 -28 72 -104 151 -186 194 -150 79 -425 110
-708 81z"/>
<path d="M2330 4223 c-7 -32 -106 -492 -220 -1023 -114 -531 -206 -967 -203
-970 7 -7 1570 -6 1577 1 6 6 86 354 86 375 0 12 -86 14 -505 14 -334 0 -505
3 -505 10 0 9 69 337 85 408 l5 22 470 0 c259 0 470 3 470 8 0 4 18 91 40 192
22 101 40 186 40 187 0 2 -209 3 -465 3 -262 0 -465 4 -465 9 0 8 71 347 85
409 l5 22 500 0 c393 0 500 3 500 13 0 6 18 94 39 195 l38 182 -783 0 -783 0
-11 -57z"/>
<path d="M4087 3968 c-36 -172 -134 -632 -217 -1021 -82 -390 -150 -713 -150
-718 0 -15 1125 -5 1240 10 307 40 539 213 626 466 23 68 28 97 28 190 1 95
-2 117 -23 162 -26 59 -97 130 -162 164 -24 12 -81 34 -127 49 l-83 26 73 23
c248 79 401 215 457 406 31 103 27 234 -9 310 -50 105 -164 187 -314 227 -64
16 -120 18 -671 18 l-601 0 -67 -312z m1009 -76 c59 -34 79 -73 79 -152 -1
-108 -57 -203 -150 -253 -37 -20 -57 -22 -264 -25 l-224 -3 6 23 c3 13 25 111
47 218 23 107 43 201 46 208 3 11 45 13 212 10 196 -3 209 -4 248 -26z m-154
-835 c91 -45 116 -117 82 -236 -24 -87 -71 -143 -151 -183 l-67 -33 -223 -3
c-123 -2 -223 -1 -223 2 0 7 87 427 96 461 l7 26 211 -3 c208 -3 212 -3 268
-31z"/>
<path d="M6081 4038 c-28 -134 -128 -594 -220 -1023 l-168 -780 36 -7 c20 -4
149 -7 288 -7 231 -1 252 0 257 17 3 9 42 188 87 397 44 209 83 382 85 384 2
2 82 3 178 3 153 0 181 -3 221 -21 83 -37 87 -73 55 -441 -11 -124 -20 -251
-20 -282 l0 -58 603 0 602 0 115 205 114 205 420 -2 420 -3 27 -193 c15 -106
30 -196 34 -200 3 -4 151 -8 327 -10 l321 -4 -6 24 c-6 25 -169 897 -292 1563
-41 226 -78 422 -81 438 l-6 27 -352 0 -352 0 -629 -1019 c-474 -765 -632
-1015 -639 -1003 -5 9 -5 106 0 236 5 122 9 300 9 396 0 173 0 175 -28 222
-44 76 -111 106 -277 127 -74 9 -73 10 73 44 338 80 507 298 495 637 -3 89 -8
113 -30 155 -51 97 -125 151 -263 191 -54 16 -129 18 -706 22 l-645 3 -53
-243z m963 -152 c63 -15 98 -36 130 -80 17 -22 21 -42 20 -101 0 -62 -5 -83
-35 -141 -39 -80 -92 -125 -171 -149 -59 -17 -458 -22 -458 -6 0 5 23 116 50
246 28 130 50 238 50 241 0 11 360 3 414 -10z m1976 -24 c0 -5 18 -195 40
-423 22 -228 40 -417 40 -421 0 -5 -126 -8 -281 -8 -263 0 -281 1 -274 17 3
10 77 146 164 303 87 157 189 342 227 412 62 114 84 146 84 120z"/>
<path d="M10430 4276 c0 -4 -340 -1590 -405 -1884 -19 -90 -35 -165 -35 -168
0 -2 357 -4 793 -4 l794 0 42 193 c22 105 41 195 41 200 0 4 -227 7 -505 7
-278 0 -505 3 -505 6 0 9 80 395 86 415 4 14 55 17 470 21 256 3 467 8 469 10
3 2 20 78 40 169 19 90 38 174 40 187 l5 22 -465 0 c-345 0 -465 3 -465 12 0
12 77 382 86 411 5 16 38 17 502 17 l498 0 38 183 c21 100 41 188 43 195 4 9
-156 12 -781 12 -432 0 -786 -2 -786 -4z"/>
<path d="M3620 1787 c0 -5 -129 -651 -135 -676 l-6 -24 1893 8 c1041 4 1895 9
1897 11 2 2 32 146 67 321 35 175 66 328 69 341 l5 22 -1895 0 c-1042 0 -1895
-1 -1895 -3z"/>
<path d="M3390 707 c0 -5 -129 -650 -135 -674 l-5 -23 1894 0 1894 0 12 53 c6
28 36 176 66 327 30 151 56 285 59 298 l5 22 -1895 0 c-1042 0 -1895 -1 -1895
-3z"/>
</g>
</svg>
