<svg width="76" height="72" viewBox="0 0 76 72" fill="none" xmlns="http://www.w3.org/2000/svg">
<path opacity="0.1" fill-rule="evenodd" clip-rule="evenodd" d="M23.6505 40.4443H45.1759L49.2291 47.1526H19.6211L23.6505 40.4443ZM24.5275 41.9943L22.3602 45.6026H46.4817L44.3016 41.9943H24.5275Z" fill="#69FFA5"/>
<path opacity="0.1" fill-rule="evenodd" clip-rule="evenodd" d="M46.4805 40.4443H51.3869L55.4163 47.1526H50.5099L46.4805 40.4443ZM49.2195 41.9943L51.3869 45.6026H52.6772L50.5099 41.9943H49.2195Z" fill="#69FFA5"/>
<path fill-rule="evenodd" clip-rule="evenodd" d="M16.5977 48.4546C16.5977 48.3119 16.7133 48.1963 16.856 48.1963H58.1919C58.3346 48.1963 58.4503 48.3119 58.4503 48.4546V50.5143C58.4503 50.657 58.3346 50.7726 58.1919 50.7726H16.856C16.7133 50.7726 16.5977 50.657 16.5977 50.5143V48.4546ZM17.1143 48.713V50.256H57.9336V48.713H17.1143Z" fill="#69FFA5"/>
<path fill-rule="evenodd" clip-rule="evenodd" d="M21.788 39.0344C21.8336 38.9523 21.92 38.9014 22.0139 38.9014H53.0159C53.1097 38.9014 53.1962 38.9523 53.2417 39.0344L58.3996 48.3301C58.4689 48.4549 58.4238 48.6121 58.2991 48.6814C58.1744 48.7506 58.0171 48.7056 57.9479 48.5808L52.8638 39.418H22.166L17.0819 48.5808C17.0127 48.7056 16.8554 48.7506 16.7307 48.6814C16.6059 48.6121 16.5609 48.4549 16.6301 48.3301L21.788 39.0344Z" fill="#69FFA5"/>
<path fill-rule="evenodd" clip-rule="evenodd" d="M21.75 20.5484C21.75 20.4057 21.8657 20.29 22.0083 20.29H53.0103C53.153 20.29 53.2686 20.4057 53.2686 20.5484V39.1582C53.2686 39.3008 53.153 39.4165 53.0103 39.4165C52.8676 39.4165 52.752 39.3008 52.752 39.1582V20.8067H22.2666V39.1582C22.2666 39.3008 22.151 39.4165 22.0083 39.4165C21.8657 39.4165 21.75 39.3008 21.75 39.1582V20.5484Z" fill="#69FFA5"/>
<path fill-rule="evenodd" clip-rule="evenodd" d="M26.9258 26.7466C26.9258 26.6039 27.0414 26.4883 27.1841 26.4883H33.3808C33.5235 26.4883 33.6392 26.6039 33.6392 26.7466V32.9438C33.6392 33.0865 33.5235 33.2021 33.3808 33.2021H27.1841C27.0414 33.2021 26.9258 33.0865 26.9258 32.9438V26.7466ZM27.4424 27.0049V32.6855H33.1225V27.0049H27.4424Z" fill="#69FFA5"/>
<path fill-rule="evenodd" clip-rule="evenodd" d="M36.2266 26.7466C36.2266 26.6039 36.3422 26.4883 36.4849 26.4883H46.8189C46.9615 26.4883 47.0772 26.6039 47.0772 26.7466C47.0772 26.8893 46.9615 27.0049 46.8189 27.0049H36.4849C36.3422 27.0049 36.2266 26.8893 36.2266 26.7466Z" fill="#69FFA5"/>
<path fill-rule="evenodd" clip-rule="evenodd" d="M36.2266 29.8462C36.2266 29.7035 36.3422 29.5879 36.4849 29.5879H46.8189C46.9615 29.5879 47.0772 29.7035 47.0772 29.8462C47.0772 29.9889 46.9615 30.1046 46.8189 30.1046H36.4849C36.3422 30.1046 36.2266 29.9889 36.2266 29.8462Z" fill="#69FFA5"/>
<path fill-rule="evenodd" clip-rule="evenodd" d="M36.2266 32.9439C36.2266 32.8012 36.3422 32.6855 36.4849 32.6855H46.8189C46.9615 32.6855 47.0772 32.8012 47.0772 32.9439C47.0772 33.0866 46.9615 33.2022 46.8189 33.2022H36.4849C36.3422 33.2022 36.2266 33.0866 36.2266 32.9439Z" fill="#69FFA5"/>
<path opacity="0.4" fill-rule="evenodd" clip-rule="evenodd" d="M53.0137 22.8793H22.0117V20.2959H53.0137V22.8793Z" fill="#69FFA5"/>
<path d="M65.9953 58.8781C61.0152 64.3719 54.3888 68.2936 47 70.12C39.6112 71.9464 31.8115 71.5907 24.6412 69.1004C17.4709 66.61 11.271 62.1035 6.8686 56.1818C2.46623 50.2602 0.0706841 43.2051 0.00153941 35.9577C-0.0676053 28.7103 2.19294 21.6152 6.48161 15.6188C10.7703 9.6225 16.8832 5.01008 24.0048 2.39688C31.1264 -0.216316 38.9181 -0.706041 46.3405 0.993039C53.7629 2.69212 60.463 6.49922 65.5471 11.9065L59.8521 16.7315C55.8018 12.4237 50.4641 9.39078 44.551 8.0372C38.6379 6.68361 32.4305 7.07376 26.757 9.15558C21.0836 11.2374 16.2137 14.9119 12.7971 19.689C9.38048 24.466 7.5796 30.1184 7.63468 35.8921C7.68976 41.6658 9.5982 47.2863 13.1054 52.0038C16.6126 56.7213 21.5518 60.3115 27.264 62.2955C32.9763 64.2794 39.1901 64.5628 45.0764 63.1077C50.9627 61.6527 56.2417 58.5285 60.2091 54.1518L65.9953 58.8781Z" fill="url(#paint0_linear_172_283)"/>
<defs>
<linearGradient id="paint0_linear_172_283" x1="37.54" y1="0" x2="37.54" y2="71.27" gradientUnits="userSpaceOnUse">
<stop stop-color="#00FDBB"/>
<stop offset="1" stop-color="#008BD1"/>
</linearGradient>
</defs>
</svg>
