<svg width="74" height="74" viewBox="0 0 74 74" fill="none" xmlns="http://www.w3.org/2000/svg">
<rect x="0.5" y="0.5" width="73" height="73" rx="11.5" fill="#1F1F1F"/>
<rect x="0.5" y="0.5" width="73" height="73" rx="11.5" stroke="#333333"/>
<path fill-rule="evenodd" clip-rule="evenodd" d="M37.0724 21.7715H36.925C35.6522 21.7714 34.5908 21.7714 33.7482 21.8847C32.8588 22.0043 32.0558 22.2673 31.4106 22.9126C30.7653 23.5578 30.5023 24.3608 30.3827 25.2501C30.2695 26.0927 30.2695 27.1541 30.2695 28.427V28.5371C27.4062 28.6308 25.6868 28.9654 24.4918 30.1604C22.832 31.8201 22.832 34.4914 22.832 39.834C22.832 45.1766 22.832 47.8479 24.4918 49.5076C26.1515 51.1673 28.8228 51.1673 34.1654 51.1673H39.832C45.1746 51.1673 47.8459 51.1673 49.5056 49.5076C51.1654 47.8479 51.1654 45.1766 51.1654 39.834C51.1654 34.4914 51.1654 31.8201 49.5056 30.1604C48.3106 28.9654 46.5912 28.6308 43.7279 28.5371V28.427C43.7279 27.1542 43.7279 26.0927 43.6147 25.2501C43.4951 24.3608 43.2321 23.5578 42.5868 22.9126C41.9416 22.2673 41.1386 22.0043 40.2492 21.8847C39.4066 21.7714 38.3452 21.7714 37.0724 21.7715ZM41.6029 28.5033V28.5007C41.6029 27.135 41.6006 26.2176 41.5086 25.5333C41.4207 24.8796 41.2688 24.5998 41.0842 24.4152C40.8996 24.2305 40.6198 24.0786 39.9661 23.9907C39.2818 23.8987 38.3644 23.8965 36.9987 23.8965C35.633 23.8965 34.7156 23.8987 34.0313 23.9907C33.3776 24.0786 33.0978 24.2305 32.9132 24.4152C32.7286 24.5998 32.5767 24.8796 32.4888 25.5333C32.3968 26.2176 32.3945 27.135 32.3945 28.5007V28.5033C32.9499 28.5007 33.5393 28.5007 34.1654 28.5007H39.832C40.4581 28.5007 41.0475 28.5007 41.6029 28.5033ZM44.082 32.7507C44.082 33.5331 43.4478 34.1673 42.6654 34.1673C41.883 34.1673 41.2487 33.5331 41.2487 32.7507C41.2487 31.9682 41.883 31.334 42.6654 31.334C43.4478 31.334 44.082 31.9682 44.082 32.7507ZM31.332 34.1673C32.1144 34.1673 32.7487 33.5331 32.7487 32.7507C32.7487 31.9682 32.1144 31.334 31.332 31.334C30.5496 31.334 29.9154 31.9682 29.9154 32.7507C29.9154 33.5331 30.5496 34.1673 31.332 34.1673Z" fill="#009387"/>
</svg>
